<?xml version="1.0" encoding="UTF-8" standalone="no"?>
<!DOCTYPE svg PUBLIC "-//W3C//DTD SVG 20010904//EN"
              "http://www.w3.org/TR/2001/REC-SVG-20010904/DTD/svg10.dtd">

<svg xmlns="http://www.w3.org/2000/svg"
     width="22" height="32"
     viewBox="0 0 22 32">
  <path id="path"
		stroke="#888888"
        fill="none" stroke-width="1"
        d="M 20.95,11.50
           C 20.69,10.94 20.27,10.48 19.75,10.17
             19.13,9.77 18.36,9.69 17.82,9.69
             17.64,9.69 17.46,9.70 17.28,9.72
             17.28,9.72 17.26,9.72 17.26,9.72
             17.27,9.64 17.29,9.55 17.31,9.47
             17.34,9.33 17.37,9.18 17.38,9.02
             17.46,8.32 17.21,7.39 16.75,6.64
             16.68,6.52 16.68,6.48 16.68,6.48
             16.71,6.44 16.73,6.41 16.76,6.38
             16.76,6.38 16.80,6.34 16.80,6.34
             17.88,5.19 18.21,3.92 17.77,2.57
             16.94,0.00 16.72,0.00 16.56,0.00
             16.52,-0.00 16.49,0.01 16.46,0.02
             16.42,0.04 16.39,0.06 16.37,0.08
             16.34,0.12 16.32,0.15 16.31,0.19
             16.30,0.24 16.30,0.28 16.30,0.32
             16.39,1.17 16.20,2.39 16.07,2.85
             15.91,3.44 15.36,4.31 13.64,5.14
             13.51,5.19 13.39,5.23 13.26,5.27
             12.70,5.46 11.76,5.78 11.23,6.50
             10.84,6.96 10.74,7.42 10.57,8.26
             10.42,9.00 10.30,9.91 10.54,10.99
             10.56,11.10 10.59,11.19 10.61,11.27
             10.62,11.32 10.63,11.37 10.64,11.42
             10.64,11.42 10.67,11.41 10.67,11.41
             10.67,11.41 10.64,11.42 10.64,11.42
             10.66,11.48 10.65,11.50 10.63,11.51
             10.54,11.54 10.46,11.57 10.37,11.59
             10.11,11.63 9.86,11.68 9.61,11.72
             8.84,11.86 6.48,12.26 5.40,13.99
             4.73,15.05 4.64,16.44 5.12,18.12
             5.62,19.79 6.60,20.93 7.28,21.16
             7.28,21.16 7.29,21.17 7.29,21.17
             7.34,21.19 7.39,21.21 7.43,21.22
             7.43,21.27 7.43,21.33 7.42,21.39
             7.42,21.42 7.41,21.45 7.41,21.48
             7.34,22.03 7.08,22.61 6.82,22.63
             6.68,22.60 6.14,22.29 5.75,22.04
             5.63,21.96 5.51,21.88 5.40,21.81
             4.32,21.09 3.73,20.70 2.82,20.60
             2.79,20.60 2.76,20.59 2.73,20.59
             1.77,20.59 0.04,22.21 0.00,25.43
             -0.02,27.05 0.15,28.52 0.51,29.82
             0.76,30.75 1.03,31.28 1.10,31.42
             1.10,31.42 1.42,32.00 1.42,32.00
             1.42,32.00 1.56,31.36 1.56,31.36
             2.31,27.97 3.23,27.15 4.77,26.17
             5.90,27.23 7.38,27.79 9.06,27.79
             10.48,27.79 11.97,27.37 13.25,26.62
             14.50,25.89 15.47,24.89 16.06,23.75
             16.16,23.81 16.28,23.90 16.36,23.95
             16.64,24.15 16.70,24.19 16.80,24.19
             16.80,24.19 16.81,24.19 16.81,24.19
             16.92,24.18 17.96,23.84 19.02,22.54
             19.64,21.78 20.15,20.85 20.53,19.76
             21.01,18.42 21.30,16.83 21.40,15.05
             21.51,13.55 21.36,12.35 20.95,11.50
             20.95,11.50 20.95,11.50 20.95,11.50 Z
           M 16.96,2.87
           C 17.05,3.23 17.06,3.60 17.00,3.97
             16.90,4.68 16.60,5.31 16.08,5.89
             16.52,4.93 16.82,3.91 16.96,2.87 Z
           M 16.22,7.27
           C 16.38,7.51 16.50,7.77 16.57,8.04
             16.66,8.40 16.65,8.77 16.53,9.12
             16.35,9.56 16.10,9.78 15.80,9.78
             15.80,9.78 15.76,9.78 15.76,9.78
             15.65,9.76 15.55,9.72 15.46,9.67
             15.07,9.44 14.86,8.83 15.01,8.39
             15.01,8.38 15.02,8.37 15.03,8.35
             15.05,8.29 15.12,8.16 15.32,7.97
             15.60,7.73 16.01,7.41 16.22,7.27
             16.22,7.27 16.22,7.27 16.22,7.27 Z
           M 11.72,7.15
           C 11.72,7.15 11.72,7.14 11.72,7.14
             11.72,7.14 11.72,7.14 11.72,7.14
             11.80,6.93 12.38,6.60 12.76,6.38
             12.80,6.35 12.85,6.32 12.90,6.30
             13.06,6.21 13.23,6.13 13.41,6.06
             14.03,5.80 15.01,5.38 15.81,4.61
             15.58,5.42 15.02,6.80 14.10,7.63
             13.89,7.82 13.48,7.98 13.00,8.17
             12.48,8.37 11.86,8.62 11.26,8.99
             11.31,8.52 11.45,7.70 11.71,7.15
             11.71,7.15 11.72,7.15 11.72,7.15 Z
           M 11.32,9.81
           C 11.63,9.55 12.19,9.21 14.05,8.59
             14.06,8.65 14.08,8.73 14.09,8.80
             14.10,8.86 14.12,8.92 14.13,8.99
             14.25,9.59 14.39,10.26 15.64,10.64
             15.52,10.89 15.28,11.33 15.20,11.41
             15.20,11.41 15.17,11.43 15.17,11.43
             15.17,11.43 15.15,11.46 15.15,11.46
             14.91,11.85 13.59,12.71 13.00,12.71
             12.98,12.71 12.95,12.70 12.93,12.70
             12.57,12.63 11.76,11.91 11.52,11.37
             11.06,10.33 11.15,9.95 11.31,9.81
             11.31,9.81 11.32,9.81 11.32,9.81 Z
           M 6.69,19.44
           C 6.01,18.43 5.49,16.66 5.83,15.23
             5.83,15.23 5.83,15.23 5.83,15.23
             5.99,14.45 6.53,14.00 6.75,13.84
             6.75,13.84 6.79,13.81 6.79,13.81
             7.12,13.52 7.80,13.22 8.70,12.95
             8.83,12.92 8.90,12.90 8.90,12.90
             9.07,12.87 9.25,12.83 9.42,12.79
             9.76,12.70 10.09,12.63 10.43,12.59
             10.52,12.58 10.60,12.56 10.69,12.55
             10.80,12.52 10.91,12.51 11.02,12.50
             11.11,12.50 11.20,12.52 11.28,12.57
             11.61,12.97 12.43,13.75 12.97,13.80
             12.97,13.80 12.98,13.80 12.98,13.80
             12.98,13.80 13.00,13.80 13.00,13.80
             13.61,13.77 14.57,13.17 15.85,12.03
             16.06,11.83 16.26,11.67 16.46,11.52
             16.46,11.52 16.49,11.50 16.49,11.50
             16.83,11.24 17.22,11.02 17.63,10.86
             17.49,11.30 17.39,12.05 17.82,13.10
             18.04,13.65 18.47,14.88 18.83,16.08
             19.45,18.15 19.36,18.52 19.35,18.55
             19.33,18.62 19.30,18.69 19.27,18.75
             19.22,18.74 19.17,18.73 19.13,18.70
             18.82,18.56 18.47,18.30 18.06,18.00
             17.31,17.45 16.37,16.76 15.00,16.22
             13.99,15.83 12.98,15.63 12.01,15.63
             11.61,15.63 11.21,15.67 10.82,15.74
             8.65,16.17 7.51,17.13 6.90,17.64
             6.90,17.64 6.90,17.64 6.90,17.64
             6.86,17.67 6.83,17.72 6.81,17.77
             6.80,17.82 6.80,17.87 6.82,17.92
             6.84,17.97 6.87,18.01 6.91,18.04
             6.95,18.07 7.00,18.08 7.05,18.08
             7.11,18.08 7.16,18.07 7.34,18.02
             7.99,17.82 8.66,17.68 9.33,17.60
             9.57,17.57 9.81,17.56 10.05,17.56
             11.10,17.56 12.06,17.88 13.08,18.57
             13.32,18.77 13.46,18.90 13.55,18.98
             13.55,18.98 13.46,19.00 13.46,19.00
             13.46,19.00 12.84,19.18 12.84,19.18
             11.31,19.61 8.99,20.27 7.90,20.27
             7.81,20.27 7.73,20.26 7.64,20.25
             7.36,20.21 7.01,19.91 6.69,19.44
             6.69,19.44 6.69,19.44 6.69,19.44 Z
           M 2.17,27.21
           C 1.74,27.77 1.42,28.41 1.23,29.10
             1.03,28.11 0.78,26.49 0.92,25.22
             1.21,22.60 2.51,21.72 2.70,21.68
             2.70,21.68 2.71,21.68 2.71,21.68
             2.72,21.68 2.73,21.68 2.76,21.71
             2.86,21.82 3.09,22.29 2.92,24.26
             2.89,24.67 2.98,25.01 3.22,25.28
             3.37,25.46 3.57,25.60 3.79,25.69
             3.17,26.10 2.62,26.62 2.16,27.21
             2.16,27.21 2.17,27.21 2.17,27.21 Z
           M 4.37,24.64
           C 4.31,24.67 4.23,24.69 4.16,24.69
             4.13,24.69 4.11,24.69 4.08,24.68
             4.06,24.67 4.04,24.66 4.02,24.64
             3.98,24.59 3.88,24.44 3.91,24.01
             3.93,23.79 3.96,23.57 3.99,23.37
             4.05,22.97 4.09,22.57 4.10,22.17
             4.86,22.67 5.70,23.19 6.24,23.44
             5.89,23.75 5.15,24.32 4.37,24.64
             4.37,24.64 4.37,24.64 4.37,24.64 Z
           M 14.25,24.57
           C 13.02,25.84 11.38,26.62 9.62,26.75
             9.41,26.76 9.20,26.77 9.00,26.77
             6.69,26.77 5.51,25.79 4.97,25.24
             7.59,24.11 8.12,22.50 8.35,21.79
             8.37,21.72 8.39,21.66 8.41,21.61
             8.51,21.56 8.83,21.42 9.81,21.05
             10.58,20.78 11.50,20.47 12.31,20.19
             12.99,19.97 13.57,19.77 13.89,19.65
             13.89,19.65 13.92,19.64 13.92,19.64
             13.98,19.63 14.02,19.62 14.04,19.61
             14.04,19.61 14.06,19.64 14.06,19.64
             14.36,20.02 14.85,20.26 14.85,20.26
             15.22,20.43 15.62,20.53 16.02,20.56
             16.01,21.96 15.37,23.41 14.25,24.57
             14.25,24.57 14.25,24.57 14.25,24.57 Z
           M 16.27,19.78
           C 15.31,19.78 14.97,19.47 14.65,19.09
             13.08,17.22 11.34,16.91 10.66,16.87
             10.45,16.85 10.23,16.84 10.03,16.84
             9.86,16.84 9.70,16.85 9.53,16.86
             10.32,16.59 11.14,16.46 11.96,16.45
             13.70,16.45 15.37,17.07 16.93,18.28
             17.56,18.77 18.03,19.12 18.43,19.40
             18.24,19.46 17.97,19.54 17.64,19.63
             17.64,19.63 17.51,19.66 17.51,19.66
             17.10,19.74 16.69,19.78 16.28,19.78
             16.28,19.78 16.27,19.78 16.27,19.78 Z
           M 16.88,23.33
           C 16.78,23.24 16.62,23.09 16.46,22.95
             16.61,22.58 16.72,22.19 16.79,21.80
             16.87,21.38 16.92,20.84 16.94,20.55
             17.40,20.48 17.85,20.38 18.30,20.26
             18.84,20.10 19.26,19.93 19.55,19.73
             18.63,22.04 17.29,23.06 16.88,23.33
             16.88,23.33 16.88,23.33 16.88,23.33 Z
           M 20.08,18.04
           C 19.94,16.90 19.48,15.49 19.30,14.94
             19.28,14.88 19.27,14.83 19.26,14.80
             19.24,14.75 19.20,14.64 19.12,14.40
             18.89,13.78 18.43,12.49 18.35,12.11
             18.23,11.55 18.50,10.78 18.67,10.71
             18.72,10.69 18.78,10.68 18.83,10.68
             19.15,10.68 19.54,10.98 19.84,11.46
             20.22,12.04 20.44,12.80 20.47,13.60
             20.53,15.36 20.37,16.82 20.08,18.04" />
</svg>
